<svg width="48" height="48" viewBox="0 0 48 48" fill="none" xmlns="http://www.w3.org/2000/svg">
<rect width="48" height="48" fill="#141D33"/>
<path d="M35.8106 33.6623C33.857 33.6623 32.0971 33.2575 30.5307 32.4479C28.9642 31.6207 27.7322 30.4767 26.8346 29.0159C25.9546 27.5375 25.5146 25.8655 25.5146 23.9999C25.5146 22.1343 25.9546 20.4711 26.8346 19.0103C27.7322 17.5319 28.9642 16.3879 30.5307 15.5783C32.0971 14.7511 33.857 14.3375 35.8106 14.3375C37.6058 14.3375 39.2074 14.6543 40.6154 15.2879C42.0235 15.9215 43.185 16.8367 44.1002 18.0335L40.1667 21.5447C39.0227 20.1015 37.6763 19.3799 36.1274 19.3799C34.825 19.3799 33.7779 19.8023 32.9859 20.6471C32.1939 21.4743 31.7979 22.5919 31.7979 23.9999C31.7979 25.4079 32.1939 26.5343 32.9859 27.3791C33.7779 28.2063 34.825 28.6199 36.1274 28.6199C37.6763 28.6199 39.0227 27.8983 40.1667 26.4551L44.1002 29.9663C43.185 31.1631 42.0235 32.0783 40.6154 32.7119C39.2074 33.3455 37.6058 33.6623 35.8106 33.6623Z" fill="white"/>
<path fill-rule="evenodd" clip-rule="evenodd" d="M18.4505 31.7939L25.6534 14.76H19.5286L15.532 24.3191L18.4505 31.7939ZM10.9121 15.5112L10.6054 14.76H3.89978L11.7142 33.24H17.8342L10.9121 15.5112Z" fill="white"/>
</svg>
