<svg width="101" height="24" viewBox="0 0 101 24" fill="none" xmlns="http://www.w3.org/2000/svg">
<path d="M42.5691 23.2803C40.3491 23.2803 38.3491 22.8203 36.5691 21.9003C34.7891 20.9603 33.3891 19.6603 32.3691 18.0003C31.3691 16.3203 30.8691 14.4203 30.8691 12.3003C30.8691 10.1803 31.3691 8.29031 32.3691 6.63031C33.3891 4.95031 34.7891 3.65031 36.5691 2.73031C38.3491 1.79031 40.3491 1.32031 42.5691 1.32031C44.6091 1.32031 46.4291 1.68031 48.0291 2.40031C49.6291 3.12031 50.9491 4.16031 51.9891 5.52031L47.5191 9.51031C46.2191 7.87031 44.6891 7.05031 42.9291 7.05031C41.4491 7.05031 40.2591 7.53031 39.3591 8.49031C38.4591 9.43031 38.0091 10.7003 38.0091 12.3003C38.0091 13.9003 38.4591 15.1803 39.3591 16.1403C40.2591 17.0803 41.4491 17.5503 42.9291 17.5503C44.6891 17.5503 46.2191 16.7303 47.5191 15.0903L51.9891 19.0803C50.9491 20.4403 49.6291 21.4803 48.0291 22.2003C46.4291 22.9203 44.6091 23.2803 42.5691 23.2803Z" fill="#9CA0A9"/>
<path d="M72.7834 22.8003L72.7234 13.2303L68.1634 20.9103H65.0434L60.4834 13.5603V22.8003H54.0334V1.80031H59.8534L66.6934 12.9903L73.3534 1.80031H79.1734L79.2334 22.8003H72.7834Z" fill="#9CA0A9"/>
<path d="M90.4864 23.2803C88.7464 23.2803 87.0464 23.0903 85.3864 22.7103C83.7464 22.3103 82.3964 21.7803 81.3364 21.1203L83.6164 15.9603C84.6164 16.5403 85.7364 17.0103 86.9764 17.3703C88.2164 17.7103 89.4064 17.8803 90.5464 17.8803C91.5264 17.8803 92.2264 17.7903 92.6464 17.6103C93.0664 17.4103 93.2764 17.1203 93.2764 16.7403C93.2764 16.3003 92.9964 15.9703 92.4364 15.7503C91.8964 15.5303 90.9964 15.2903 89.7364 15.0303C88.1164 14.6903 86.7664 14.3303 85.6864 13.9503C84.6064 13.5503 83.6664 12.9103 82.8664 12.0303C82.0664 11.1303 81.6664 9.92031 81.6664 8.40031C81.6664 7.08031 82.0364 5.88031 82.7764 4.80031C83.5164 3.72031 84.6164 2.87031 86.0764 2.25031C87.5564 1.63031 89.3464 1.32031 91.4464 1.32031C92.8864 1.32031 94.2964 1.48031 95.6764 1.80031C97.0764 2.10031 98.3064 2.55031 99.3664 3.15031L97.2364 8.28031C95.1764 7.24031 93.2264 6.72031 91.3864 6.72031C89.5664 6.72031 88.6564 7.16031 88.6564 8.04031C88.6564 8.46031 88.9264 8.78031 89.4664 9.00031C90.0064 9.20031 90.8964 9.42031 92.1364 9.66031C93.7364 9.96031 95.0864 10.3103 96.1864 10.7103C97.2864 11.0903 98.2364 11.7203 99.0364 12.6003C99.8564 13.4803 100.266 14.6803 100.266 16.2003C100.266 17.5203 99.8964 18.7203 99.1564 19.8003C98.4164 20.8603 97.3064 21.7103 95.8264 22.3503C94.3664 22.9703 92.5864 23.2803 90.4864 23.2803Z" fill="#9CA0A9"/>
<path d="M0.344116 0.125L8.87156 23.7794H18.6172L10.0803 0.125H0.344116Z" fill="#9CA0A9"/>
<path d="M27.1441 0.125H17.408L14.391 8.477L19.2638 21.9746L27.1441 0.125Z" fill="#9CA0A9"/>
</svg>
